<svg display="none">
	<symbol id="sberbank" viewBox="0 0 194 48" xmlns="http://www.w3.org/2000/svg">
			<g>
			<path d="M26.7056 14.7771C27.4138 15.6902 28.0133 16.6823 28.492 17.7333L14.9119 27.7171L9.23633 24.169V19.9003L14.9119 23.4485L26.7056 14.7771Z" />
			<path d="M3.44421 23.8678C3.44421 23.6762 3.4489 23.4859 3.45826 23.2968L0.0187323 23.1287C0.00702524 23.3738 4.15651e-06 23.6214 4.15651e-06 23.8712C-0.00145927 25.8232 0.383523 27.7562 1.13288 29.5594C1.88222 31.3627 2.98119 33.0006 4.36673 34.3792L6.80647 31.9472C5.73993 30.8878 4.89384 29.6287 4.31683 28.2421C3.73982 26.8556 3.44327 25.3689 3.44421 23.8678Z" />
			<path d="M14.9094 12.4341C15.1014 12.4341 15.2921 12.4411 15.4818 12.4504L15.6539 9.01899C15.4073 9.00731 15.1591 9.00148 14.9094 9.00148C12.9512 8.99909 11.012 9.38249 9.20282 10.1296C7.39368 10.8768 5.75035 11.973 4.36719 13.3553L6.80693 15.7885C7.86921 14.7245 9.13191 13.8803 10.5224 13.3047C11.9129 12.729 13.4038 12.4331 14.9094 12.4341Z" />
			<path d="M14.9088 35.3017C14.7168 35.3017 14.526 35.3017 14.3352 35.2865L14.1631 38.7168C14.4105 38.7292 14.6591 38.7355 14.9088 38.7355C16.8662 38.7375 18.8045 38.3538 20.6127 37.6065C22.4208 36.8591 24.0631 35.7628 25.4452 34.3805L23.0101 31.9485C21.9477 33.0119 20.6851 33.8556 19.2948 34.431C17.9046 35.0065 16.414 35.3024 14.9088 35.3017Z" />
			<path d="M21.3713 14.4292L24.27 12.2984C21.6206 10.1588 18.3134 8.99406 14.9043 9.00002V12.4338C17.2128 12.4309 19.4677 13.1267 21.3713 14.4292Z" />
			<path d="M29.8174 23.8677C29.8193 22.9745 29.7409 22.0827 29.5832 21.2034L26.3744 23.5618C26.3744 23.6635 26.3744 23.765 26.3744 23.8677C26.3752 25.4653 26.0394 27.0452 25.3889 28.505C24.7382 29.9648 23.7872 31.272 22.5977 32.3418L24.9122 34.893C26.4587 33.5006 27.6946 31.7996 28.5396 29.9003C29.3847 28.0009 29.82 25.9456 29.8174 23.8677Z"/>
			<path d="M14.9085 35.3016C13.3065 35.3021 11.7223 34.9671 10.2583 34.3183C8.79442 33.6695 7.48345 32.7212 6.41032 31.535L3.85352 33.8421C5.24953 35.3848 6.95507 36.6175 8.85954 37.4605C10.764 38.3034 12.8248 38.7378 14.9085 38.7353V35.3016Z" />
			<path d="M7.22091 15.3935L4.9076 12.8424C3.3606 14.2346 2.12428 15.9355 1.27883 17.8348C0.433389 19.7342 -0.00230497 21.7895 9.1703e-06 23.8676H3.44422C3.44351 22.2702 3.77934 20.6902 4.42993 19.2304C5.08054 17.7707 6.0314 16.4634 7.22091 15.3935Z" />
			<path d="M86.0341 17.5025L90.2998 14.4038H76.0234V33.0245H90.2998V29.9258H80.0971V25.1561H88.8005V22.0573H80.0971V17.5025H86.0341Z" />
			<path d="M66.4173 21.6578H61.4609V17.5013H69.3712L73.6343 14.3932H57.3896V33.0139H65.893C70.6604 33.0139 73.3965 30.8834 73.3965 27.1677C73.3965 23.6131 70.9183 21.6578 66.4173 21.6578ZM65.7097 29.9142H61.4609V24.7546H65.7097C68.2882 24.7546 69.4972 25.6193 69.4972 27.3345C69.4972 29.0496 68.2108 29.9142 65.7097 29.9142Z" />
			<path d="M100.794 14.4011H93.0225V33.0218H97.0955V27.7469H100.794C105.752 27.7469 108.819 25.1744 108.819 21.0641C108.819 16.9538 105.752 14.4011 100.794 14.4011ZM100.708 24.6458H97.0955V17.5022H100.708C103.316 17.5022 104.755 18.7715 104.755 21.0754C104.755 23.3793 103.316 24.6458 100.708 24.6458Z" />
			<path d="M51.277 28.6274C50.2247 29.1892 49.0459 29.4801 47.8494 29.4732C44.2684 29.4732 41.6705 26.9524 41.6705 23.4812C41.6705 20.01 44.2684 17.4837 47.8494 17.4837C49.1408 17.462 50.4054 17.8482 51.4585 18.5857L54.3077 16.5167L54.115 16.3817C52.453 14.9409 50.2322 14.1777 47.6903 14.1777C44.9332 14.1777 42.4331 15.0924 40.6482 16.7564C39.7456 17.6131 39.0319 18.6441 38.5512 19.785C38.0706 20.926 37.8335 22.1522 37.8548 23.3875C37.8357 24.6353 38.0718 25.8741 38.5488 27.03C39.0259 28.186 39.7341 29.2351 40.6314 30.1151C42.4247 31.8452 44.9192 32.7984 47.6567 32.7984C50.5171 32.7984 53.0172 31.8149 54.71 30.0242L52.1597 28.1509L51.277 28.6274Z"/>
			<path d="M124.97 21.6578H120.015V17.5013H130.662V14.3932H115.941V33.0139H124.434C129.201 33.0139 131.937 30.8834 131.937 27.1677C131.948 23.6131 129.471 21.6578 124.97 21.6578ZM124.262 29.9142H120.015V24.7546H124.262C126.841 24.7546 128.049 25.6193 128.049 27.3345C128.049 29.0496 126.774 29.9142 124.262 29.9142Z" />
			<path d="M178.246 32.9872H174.116V14.3665H178.246V22.1873H180.493L186.563 14.3665H191.243L184.043 23.2245L192.403 32.9872H186.924L180.78 25.6638H178.246V32.9872Z" />
			<path d="M146.94 29.4485H138.205L136.724 33.0644H132.329L140.522 14.4437H144.916L152.976 33.0644H148.421L146.94 29.4485ZM145.572 26.0746L142.598 18.8427L139.608 26.0746H145.572Z" />
			<path d="M158.535 14.4437V22.2194H167.08V14.4437H171.338V33.0644H167.08V25.7272H158.535V33.0644H154.277V14.4437H158.535Z" />
			</g>
		</symbol>
	<symbol width="112" height="48" id="gazprom" viewBox="0 0 113 48" xmlns="http://www.w3.org/2000/svg">
		<g>
			<path fill-rule="evenodd" clip-rule="evenodd"
					d="M25.9589 0.581502C23.2146 4.38073 21.6707 8.23573 21.1581 12.5691C20.9593 14.2498 21.0677 17.909 21.3607 19.4075C22.0221 22.7891 23.4626 26.2348 25.3622 28.9789C26.3547 30.4126 26.3512 30.4114 26.991 29.5703C30.1105 25.4695 32.001 19.4272 31.755 14.343C31.5133 9.34735 29.8829 4.82104 26.7949 0.572227L26.3791 0L25.9589 0.581502ZM27.8431 4.82421C29.6979 8.39694 30.5428 11.815 30.5428 15.7464C30.5428 17.1618 30.2208 20.4613 30.0699 20.5931C30.0424 20.6171 29.9762 19.9071 29.9229 19.0153C29.7423 15.9889 29.2011 13.5115 28.169 10.983C27.5845 9.55152 26.5005 7.44798 26.347 7.44798C26.1924 7.44798 25.1659 9.45243 24.6286 10.804C23.5092 13.6193 23.0226 15.759 22.9081 18.3702C22.818 20.4221 22.7132 20.9571 22.5615 20.1397C22.5054 19.8377 22.3826 18.6508 22.2888 17.502C21.9953 13.9122 22.4876 10.6785 23.8527 7.23052C24.5101 5.56948 25.6673 3.23713 26.1594 2.58131L26.3771 2.29098L26.7933 2.94742C27.0223 3.3084 27.4947 4.15301 27.8431 4.82421ZM35.8574 22.9466V31.245H37.6057H39.3539V23.9839V16.7227H41.0322H42.7105V15.6854V14.6481H39.284H35.8574V22.9466ZM44.8084 14.8203C44.8084 14.915 44.4918 17.7294 44.1049 21.0747C43.2084 28.8252 42.9912 30.7666 42.9907 31.0315C42.9902 31.2233 43.1656 31.245 44.7194 31.245H46.4485L46.5421 29.9331C46.5935 29.2115 46.6737 28.2232 46.7203 27.7365L46.805 26.8517H47.6789H48.5528L48.6337 27.3704C48.6781 27.6556 48.7567 28.6442 48.8082 29.567L48.9021 31.245H50.6925H52.483L52.4173 30.8484C52.381 30.6302 51.9768 27.1568 51.519 23.1296C51.0611 19.1024 50.6481 15.5467 50.6013 15.2278L50.5163 14.6481H47.6623C45.2989 14.6481 44.8084 14.6776 44.8084 14.8203ZM56.1372 14.775C55.3789 14.9134 54.903 15.2046 54.5286 15.7592C54.2876 16.1162 54.2423 16.4398 54.2016 18.0956L54.1543 20.0177H55.9148H57.6754L57.6775 18.7058C57.6796 17.3295 57.8365 16.8188 58.28 16.7442C58.871 16.645 58.9341 16.8798 58.9341 19.1783C58.9341 21.8923 58.9629 21.8482 57.1859 21.8482H55.9971V22.7635V23.6788H57.0553C58.0691 23.6788 58.6057 23.8045 58.8271 24.0937C58.8836 24.1675 58.9308 25.274 58.932 26.5527C58.9343 29.0159 58.8954 29.1704 58.2733 29.1704C57.7922 29.1704 57.6754 28.7518 57.6754 27.0268V25.5093H55.9158H54.1563L54.2027 27.6755C54.2543 30.0793 54.3442 30.3729 55.1908 30.8998C55.6221 31.1683 55.788 31.1861 58.1887 31.222C60.5334 31.257 60.774 31.2404 61.2987 31.0068C61.6745 30.8395 61.9748 30.5782 62.184 30.2366C62.4818 29.7502 62.5029 29.5568 62.5404 26.9738C62.5756 24.5354 62.5521 24.1804 62.3306 23.8033C62.0146 23.2657 61.2661 22.8245 60.6699 22.8245C60.0101 22.8245 59.9538 22.6166 60.5886 22.523C61.3976 22.4037 61.9945 22.0282 62.2958 21.4491C62.5265 21.0057 62.5646 20.6407 62.5665 18.8584C62.5707 15.1377 62.2139 14.751 58.7243 14.6929C57.6474 14.6748 56.4832 14.7118 56.1372 14.775ZM65.0879 22.9466V31.245H66.9061H68.7242V23.9839V16.7227H69.3536H69.983V23.9839V31.245H71.7312H73.4794V22.9466V14.6481H69.2837H65.0879V22.9466ZM76.1018 14.7178C76.044 14.7689 75.9969 18.5085 75.9969 23.028V31.245H77.815H79.6332V28.4382V25.6314H81.0721C82.9375 25.6314 83.5863 25.3836 84.1087 24.472C84.4575 23.8632 84.4583 23.8537 84.4583 20.3228C84.4583 18.3763 84.4087 16.5795 84.3478 16.3296C84.2175 15.7937 83.6895 15.2086 83.0781 14.9227C82.7143 14.7526 82.0961 14.71 79.4234 14.6713C77.6542 14.6457 76.1595 14.6667 76.1018 14.7178ZM89.004 14.7743C88.178 14.9259 87.7443 15.2153 87.3604 15.8709L87.0457 16.4084V23.0076V29.6068L87.3604 30.1443C87.9351 31.1257 88.1124 31.1786 90.9665 31.2222C93.1984 31.2562 93.5356 31.2346 94.0828 31.0234C94.5683 30.8361 94.7665 30.6624 95.0319 30.1921L95.3673 29.5975V22.9466V16.2956L95.0508 15.7785C94.5287 14.926 93.9363 14.7406 91.5911 14.6961C90.5142 14.6756 89.35 14.7108 89.004 14.7743ZM97.9547 22.9436V31.245H99.7729H101.591L101.595 26.028C101.599 21.2118 101.681 20.1795 101.931 21.7872C101.983 22.1228 102.368 24.27 102.787 26.5587C103.206 28.8474 103.549 30.8382 103.549 30.9825C103.549 31.2345 103.608 31.245 105.015 31.245C106.421 31.245 106.484 31.2338 106.552 30.9704C106.649 30.5953 107.052 28.4068 107.759 24.411C108.086 22.5652 108.405 21.0028 108.468 20.9391C108.532 20.8754 108.584 23.1681 108.584 26.0341V31.245H110.402H112.22V22.9466V14.6481H109.921C108.656 14.6481 107.592 14.6894 107.557 14.7396C107.522 14.7899 107.2 16.259 106.842 18.0041C106.484 19.7492 106.041 21.891 105.858 22.7635C105.675 23.6361 105.446 24.7756 105.349 25.2958C105.252 25.8159 105.132 26.2415 105.083 26.2415C105.033 26.2415 104.913 25.8435 104.817 25.3568C104.72 24.8701 104.494 23.7581 104.314 22.8855C104.135 22.013 103.761 20.1733 103.482 18.7973C103.204 17.4214 102.899 15.9386 102.803 15.5024L102.63 14.7091L100.292 14.6757L97.9547 14.6423V22.9436ZM17.6059 14.8987C8.96289 15.673 2.10478 21.3014 0.67724 28.7921C0.389131 30.3034 0.463255 33.4497 0.819895 34.8451C2.54855 41.6106 8.47688 46.5786 16.2772 47.7984C18.0151 48.0701 20.9436 48.0667 22.7107 47.7909C26.2865 47.2327 29.7365 45.7507 32.2748 43.6823L33.34 42.8143V37.1517V31.4891H26.417H19.494V34.0054V36.5215L19.9859 36.1942C22.6069 34.4497 26.4581 35.1658 27.9961 37.6835C29.2613 39.7547 28.7846 41.8456 26.651 43.5843C24.7759 45.1123 22.126 46.0122 19.5066 46.0105C11.0973 46.0052 5.97718 38.0988 10.2836 31.7687C10.9612 30.7727 12.3907 29.4917 13.5932 28.8028C14.7666 28.1308 16.5246 27.5311 17.6758 27.4104C18.0989 27.366 18.6826 27.2995 18.973 27.2625L19.501 27.1954L19.4625 21.0133L19.424 14.8312L19.0744 14.8148C18.8821 14.8058 18.2213 14.8435 17.6059 14.8987ZM47.952 18.1567C48.0037 18.9454 48.1353 20.6614 48.2444 21.9703C48.3535 23.2791 48.4432 24.5284 48.4437 24.7466L48.4447 25.1432H47.6643H46.884L46.9636 24.3805C47.0074 23.9611 47.1414 22.1899 47.2614 20.4448C47.3814 18.6997 47.5091 17.1484 47.5453 16.9973C47.6996 16.3519 47.8642 16.8211 47.952 18.1567ZM80.6742 16.994C80.8574 17.2221 80.8919 17.7555 80.8919 20.35C80.8919 23.3027 80.8796 23.4455 80.6037 23.6862C80.443 23.8264 80.1798 23.921 80.0093 23.8998C79.7033 23.8618 79.7031 23.86 79.6661 20.2923L79.629 16.7227H80.0427C80.3118 16.7227 80.5326 16.8175 80.6742 16.994ZM91.6331 16.8692C91.8749 17.0802 91.8749 28.813 91.6331 29.024C91.3762 29.2481 90.8488 29.1982 90.6869 28.9344C90.5929 28.7811 90.5422 26.6643 90.5422 22.9023C90.5422 17.7959 90.5683 17.0835 90.7619 16.9144C91.0237 16.6861 91.4008 16.6665 91.6331 16.8692ZM26.9816 19.3466C28.3286 22.4694 28.1614 26.3743 26.5669 29.0297L26.3814 29.3385L26.1371 28.926C24.9563 26.9336 24.511 23.7934 25.0725 21.4195C25.3219 20.3648 25.9476 18.7877 26.248 18.4566C26.4486 18.2355 26.561 18.3719 26.9816 19.3466ZM35.7176 42.2893V47.964H74.1088H112.5V42.2893V36.6146H74.1088H35.7176V42.2893ZM40.7223 40.0621L40.762 41.374H41.7363H42.7105V40.0316V38.6892H43.4797H44.249V42.2283V45.7673H43.4797H42.7105V44.1808V42.5944H41.7315H40.7525V44.1808V45.7673H39.9133H39.0742V42.2222V38.677L39.8784 38.7136L40.6826 38.7502L40.7223 40.0621ZM59.4936 39.2994V39.9096H58.095H56.6964V40.6418V41.374H57.9551H59.2138V41.9842V42.5944H57.9551H56.6964V43.6317V44.669H58.095H59.4936V45.2182V45.7673H57.3257H55.1579V42.2283V38.6892H57.3257H59.4936V39.2994ZM74.712 39.1469C74.753 39.5169 74.791 39.5435 75.2791 39.5435C75.6156 39.5435 76.0295 39.6692 76.4388 39.8958C77.3027 40.3738 77.7004 41.0963 77.7065 42.1993C77.7157 43.8427 76.7398 44.9131 75.2321 44.9131C74.7608 44.9131 74.7382 44.9327 74.7382 45.3402V45.7673H73.899H73.0599V45.3402C73.0599 44.9205 73.0498 44.9131 72.4778 44.9131C71.6806 44.9131 70.8357 44.4586 70.401 43.7962C69.9367 43.0884 69.9017 41.5727 70.3326 40.8327C70.7505 40.1151 71.5084 39.6424 72.3551 39.5715C73.051 39.5132 73.0599 39.5072 73.0599 39.0947V38.677L73.864 38.7136C74.6591 38.7499 74.6688 38.7548 74.712 39.1469ZM93.1296 39.2994V39.8486L92.1855 39.8847L91.2415 39.9207V42.8441V45.7673H90.4723H89.703V42.8385V39.9096H88.724H87.745V39.2967V38.684L90.4373 38.717L93.1296 38.7502V39.2994ZM105.227 40.0149V41.3406L106.13 41.4038C107.259 41.4829 107.84 41.772 108.259 42.4626C108.852 43.4413 108.574 44.8841 107.674 45.5024C107.323 45.7432 107.123 45.7673 105.488 45.7673H103.689V42.2283V38.6892H104.458H105.227V40.0149ZM72.0852 40.9429C71.8666 41.1459 71.7392 41.442 71.6941 41.8513C71.5627 43.0449 71.961 43.8147 72.7102 43.8147H73.0599V42.2283C73.0599 40.6491 73.0583 40.6418 72.7345 40.6418C72.5557 40.6418 72.2635 40.7773 72.0852 40.9429ZM74.7382 42.2283V43.8147H75.0776C75.8321 43.8147 76.2953 42.7035 75.9953 41.6126C75.8254 40.9942 75.4591 40.6418 74.9867 40.6418C74.7612 40.6418 74.7382 40.7893 74.7382 42.2283ZM105.257 43.6622L105.297 44.73L105.913 44.7181C106.674 44.7034 106.906 44.4649 106.906 43.6965C106.906 42.8895 106.621 42.5944 105.843 42.5944H105.216L105.257 43.6622Z" />
		</g>
	</symbol>
	<symbol width="143" height="48" id="rosneft" viewBox="0 0 143 48" xmlns="http://www.w3.org/2000/svg">
		<g>
			<path fill-rule="evenodd" clip-rule="evenodd" d="M14.7267 11.043V21.9161H16.8355H18.9443V11.043V0H16.8355H14.7267V11.043ZM9.90656 15.5605V26.3888H12.0154H14.1242V15.5605V4.61796H12.0154H9.90656V15.5605ZM19.7477 15.5676V26.4027H21.7979H23.8649L23.9213 15.5103L23.9778 4.61796H21.8627H19.7477V15.5676ZM5.08641 18.82V28.6189L7.04821 30.5727C8.12712 31.6473 9.07187 32.5265 9.14739 32.5265C9.2229 32.5265 9.26648 27.2636 9.24419 20.831L9.20362 9.13553L7.14502 9.07831L5.08641 9.02109V18.82ZM24.5678 20.8459V32.6197L26.6785 30.5169L28.7893 28.4139L28.7371 18.7746L28.685 9.13553L26.6264 9.10381L24.5678 9.07209V20.8459ZM0.0654297 13.5C0.0654297 13.5 0.0654297 16.2438 0.0654297 19.083V24.2451L1.72396 25.7255C2.63617 26.5396 3.58514 27.3779 3.83277 27.5883L4.28306 27.9708V20.8322V13.5221L2.06543 13.5C0.981098 13.4869 0.0654297 13.5 0.0654297 13.5ZM29.5019 13.5V27.9086C29.5019 27.9086 30.5117 27.1179 31.6067 26.1517L33.5976 24.3949L33.6016 19.016V13.5H31.5654H29.5019ZM29.388 42.4475V47.7859H30.9947H32.6014V45.9788V44.1718L35.865 44.1566C39.5647 44.1393 40.311 43.9664 40.9865 42.9713C41.3608 42.4198 41.4383 42.0331 41.4383 40.7188C41.4383 38.8728 41.1345 38.1203 40.1797 37.6019C39.6203 37.2981 38.8276 37.2394 34.4592 37.1792L29.388 37.1089V42.4475ZM45.2543 37.3704C44.3192 37.6476 43.6908 38.2622 43.4475 39.1374C43.3379 39.5322 43.2477 41.1199 43.2473 42.666C43.2465 45.7712 43.4423 46.4822 44.5156 47.2697C45.0472 47.6596 45.3499 47.6855 49.3711 47.6855C53.4062 47.6855 53.6932 47.6608 54.2268 47.2658C55.2732 46.492 55.3973 45.9804 55.3911 42.4652C55.3824 37.3959 55.2511 37.275 49.6728 37.2073C47.5467 37.1814 45.6566 37.2513 45.2543 37.3704ZM59.0118 37.4384C57.2952 38.0622 57.0018 38.9812 57.1446 43.285C57.245 46.3053 57.422 46.7699 58.7248 47.4341C59.7465 47.9549 66.7124 47.9549 67.734 47.4341C68.7852 46.8984 69.1632 46.2417 69.212 44.8665L69.2546 43.6699H67.6497H66.0448L65.9416 44.2668C65.7988 45.0916 65.1324 45.3701 63.2927 45.3735C61.561 45.3769 60.8412 45.1783 60.6302 44.639C60.5512 44.4372 60.4944 43.4201 60.504 42.3788C60.5275 39.8157 60.5888 39.7546 63.1437 39.7546C64.2222 39.7546 65.243 39.8078 65.4125 39.8727C65.5818 39.9377 65.8235 40.3028 65.9494 40.684L66.1781 41.3771L67.7164 41.3187L69.2546 41.2605L69.2299 40.2457C69.199 38.9772 68.736 38.0588 67.8955 37.5996C66.9992 37.1099 60.2522 36.9875 59.0118 37.4384ZM71.0999 37.4197C71.0385 37.5798 70.9794 39.9777 70.9688 42.7485L70.9493 47.7859H72.6626H74.376V45.7947C74.376 44.6714 74.462 43.7745 74.5732 43.7367C74.6817 43.7 75.9018 43.6976 77.2846 43.7315L79.7987 43.7931V45.7895V47.7859H81.5092H83.2196L83.1661 42.5154L83.1125 37.2449H81.5058H79.8991L79.884 39.2187L79.869 41.1924L77.199 41.186C75.7307 41.1824 74.5031 41.1525 74.4712 41.1195C74.4393 41.0866 74.3822 40.2014 74.3443 39.1523L74.2756 37.2449L72.7436 37.1866C71.5514 37.1415 71.1869 37.1931 71.0999 37.4197ZM87.1293 37.331C85.1767 37.802 84.9201 38.3988 84.9201 42.4652C84.9201 45.9782 85.0454 46.4928 86.0892 47.2658C86.6238 47.662 86.9483 47.6891 91.8633 47.7479L97.0709 47.8106V46.5934V45.3765H93.2643C90.783 45.3765 89.2781 45.2946 88.9415 45.1414C88.4701 44.9265 88.0455 44.0925 88.2853 43.8526C88.3402 43.7978 90.3168 43.7343 92.6777 43.7114L96.9704 43.6699V42.4652V41.2605L93.1545 41.2199C91.0557 41.1976 89.0899 41.175 88.7862 41.1697C88.1319 41.1583 88.0303 40.6035 88.5896 40.0974C88.8856 39.8295 89.6177 39.7655 92.9579 39.7149L96.9704 39.6542L97.0303 38.3994L97.0899 37.1445L92.411 37.165C89.8374 37.1764 87.4607 37.2511 87.1293 37.331ZM106.109 38.1484V39.1523L103.247 39.1531C100.102 39.1539 99.4964 39.3332 98.7392 40.4885C98.2036 41.3057 98.2337 43.5482 98.7904 44.2945C99.7388 45.5662 100.06 45.6716 103.211 45.7467L106.109 45.8158V46.8008V47.7859H107.705H109.301L109.362 46.7516L109.422 45.7176L111.956 45.7401C114.2 45.76 114.591 45.7116 115.366 45.3185C116.553 44.7167 117.054 43.81 117.019 42.3228C116.987 40.9298 116.448 39.9414 115.464 39.4747C114.944 39.2278 114.145 39.1523 112.053 39.1523H109.322V38.1484V37.1445H107.715H106.109V38.1484ZM116.954 38.461V39.7775L119.013 39.7392L121.071 39.7008L121.126 43.7433L121.18 47.7859H122.883H124.586V43.7702V39.7546L126.644 39.7309C127.777 39.7177 128.771 39.7177 128.854 39.7309C128.937 39.744 129.004 39.1673 129.004 38.4496V37.1445H122.979H116.954V38.461ZM130.41 42.4652V47.7859L135.281 47.7815C139.607 47.7776 140.243 47.7351 140.98 47.4008C142.081 46.9008 142.545 45.7702 142.425 43.8815C142.332 42.4238 141.916 41.6635 140.936 41.1621C140.419 40.8977 138.137 40.7636 134.076 40.7591C133.641 40.7585 133.624 40.6915 133.624 38.9515V37.1445H132.017H130.41V42.4652ZM37.9839 39.9956C38.3219 40.3335 38.284 41.0726 37.9094 41.447C37.6563 41.7 37.099 41.7624 35.0976 41.7624H32.6014V40.7585V39.7546H35.1722C36.9038 39.7546 37.8216 39.8333 37.9839 39.9956ZM51.6812 39.9508C51.8991 40.0881 52.0101 40.6443 52.0828 41.9592C52.2055 44.1812 52.0384 44.9253 51.359 45.1837C50.7121 45.4295 48.044 45.4345 47.4035 45.1912C46.7248 44.9332 46.6212 44.5461 46.6491 42.3734C46.6821 39.7988 46.7287 39.7536 49.3524 39.7576C50.4675 39.7594 51.5155 39.8462 51.6812 39.9508ZM106.109 42.4652V43.5695H104.315C102.363 43.5695 101.891 43.3546 101.891 42.4652C101.891 41.5757 102.363 41.3609 104.315 41.3609H106.109V42.4652ZM113.224 41.6763C113.398 41.85 113.54 42.205 113.54 42.4652C113.54 43.3546 113.068 43.5695 111.115 43.5695H109.322V42.4652V41.3609H111.115C112.478 41.3609 112.984 41.4368 113.224 41.6763ZM139.129 44.0152C139.28 44.4473 139.243 44.6463 138.951 44.9689C138.618 45.3365 138.34 45.3765 136.103 45.3765H133.624V44.3858C133.624 43.2049 133.594 43.2143 136.833 43.3687C138.906 43.4675 138.941 43.4773 139.129 44.0152Z"/>
			<path d="M9.90656 48V38.6732V27.7306H12.0154H14.1242V38.6732V48H12.0154H9.90656Z"/>
			<path d="M19.6473 48V38.6732V27.7306H21.7561H23.8649V38.6732V48H21.7561H19.6473Z"/>
			<path d="M14.7267 48V38.6732V23.2579H16.8355H18.9443V38.6732V48H16.8355H14.7267Z"/>
		</g>
	</symbol>
</svg>
